# xmcd
#
# Track frame offsets:
#	150
#	27014
#	44241
#	67723
#	89450
#
# Disc length: 1484 seconds
#
# Revision: 1
# Processed by: cddbd v1.5.2PL0 Copyright (c) Steve Scherf et al.
# Submitted via: audiograbber 1.83.01
#
DISCID=3905ca05
DTITLE=The Upsetters - Cold Chill
DYEAR=2008
DGENRE=Blues
TTITLE0=Lovesick, Baby
TTITLE1=Cold Chill
TTITLE2=I Smell Trouble
TTITLE3=She's Mine
TTITLE4=Somethin's Smellin' Good
EXTD=Promo CD
EXTT0=
EXTT1=
EXTT2=
EXTT3=
EXTT4=
PLAYORDER=
